HIERARCHY
ROOT joint_Root
{
	OFFSET 0.0 0.0 0.0
	CHANNELS 6 Xposition Yposition Zposition Zrotation Xrotation Yrotation 
	JOINT Hips
	{
		OFFSET 4.5925 91.4895 -427.239
		CHANNELS 6 Xposition Yposition Zposition Zrotation Xrotation Yrotation 
		JOINT Spine
		{
			OFFSET 15.7357 0.0 0.0
			CHANNELS 6 Xposition Yposition Zposition Zrotation Xrotation Yrotation 
			JOINT Chest
			{
				OFFSET 8.98455 -0.406207 0.0
				CHANNELS 6 Xposition Yposition Zposition Zrotation Xrotation Yrotation 
				JOINT Neck
				{
					OFFSET 16.3773 0.0 0.0
					CHANNELS 6 Xposition Yposition Zposition Zrotation Xrotation Yrotation 
					JOINT Head
					{
						OFFSET 6.45672 0.0 0.0
						CHANNELS 6 Xposition Yposition Zposition Zrotation Xrotation Yrotation 
						End Site
						{
							OFFSET 0.0 0.0 0.0
						}
					}
				}
				JOINT Shoulder_L
				{
					OFFSET 12.9942 -0.242716 4.98039
					CHANNELS 6 Xposition Yposition Zposition Zrotation Xrotation Yrotation 
					JOINT UpperArm_L
					{
						OFFSET 5.34809 0.0 0.0
						CHANNELS 6 Xposition Yposition Zposition Zrotation Xrotation Yrotation 
						JOINT LowerArm_L
						{
							OFFSET 24.3286 1.87007e-05 0.0
							CHANNELS 6 Xposition Yposition Zposition Zrotation Xrotation Yrotation 
							JOINT Hand_L
							{
								OFFSET 22.2916 0.0 0.0
								CHANNELS 6 Xposition Yposition Zposition Zrotation Xrotation Yrotation 
								End Site
								{
									OFFSET 0.0 0.0 0.0
								}
							}
						}
					}
				}
				JOINT Shoulder_R
				{
					OFFSET 12.9945 -0.242716 -4.98039
					CHANNELS 6 Xposition Yposition Zposition Zrotation Xrotation Yrotation 
					JOINT UpperArm_R
					{
						OFFSET -5.34813 0.0 0.0
						CHANNELS 6 Xposition Yposition Zposition Zrotation Xrotation Yrotation 
						JOINT LowerArm_R
						{
							OFFSET -24.3289 0.000322201 0.0
							CHANNELS 6 Xposition Yposition Zposition Zrotation Xrotation Yrotation 
							JOINT Hand_R
							{
								OFFSET -22.2915 -0.000108084 0.0
								CHANNELS 6 Xposition Yposition Zposition Zrotation Xrotation Yrotation 
								End Site
								{
									OFFSET 0.0 0.0 0.0
								}
							}
						}
					}
				}
			}
		}
		JOINT UpperLeg_L
		{
			OFFSET -2.19248 -6.46944 0.0
			CHANNELS 6 Xposition Yposition Zposition Zrotation Xrotation Yrotation 
			JOINT LowerLeg_L
			{
				OFFSET 39.0811 0.0 -1.23785e-05
				CHANNELS 6 Xposition Yposition Zposition Zrotation Xrotation Yrotation 
				JOINT Foot_L
				{
					OFFSET 40.9854 0.0 -1.26872e-05
					CHANNELS 6 Xposition Yposition Zposition Zrotation Xrotation Yrotation 
					JOINT Toes_L
					{
						OFFSET 11.7543 0.0 0.0
						CHANNELS 6 Xposition Yposition Zposition Zrotation Xrotation Yrotation 
						End Site
						{
							OFFSET 0.0 0.0 0.0
						}
					}
				}
			}
		}
		JOINT UpperLeg_R
		{
			OFFSET -2.19251 6.46944 0.0
			CHANNELS 6 Xposition Yposition Zposition Zrotation Xrotation Yrotation 
			JOINT LowerLeg_R
			{
				OFFSET -39.0811 -0.00228153 -0.0401928
				CHANNELS 6 Xposition Yposition Zposition Zrotation Xrotation Yrotation 
				JOINT Foot_R
				{
					OFFSET -40.9854 0.0 0.0
					CHANNELS 6 Xposition Yposition Zposition Zrotation Xrotation Yrotation 
					JOINT Toes_R
					{
						OFFSET -11.7543 0.0 0.0
						CHANNELS 6 Xposition Yposition Zposition Zrotation Xrotation Yrotation 
						End Site
						{
							OFFSET 0.0 0.0 0.0
						}
					}
				}
			}
		}
	}
}
MOTION
Frames:	6
Frame Time:	0.0333333
0.000000 0.000000 0.000000 0.000000 0.000000 -0.000000 -0.203897 92.008300 -1.506830 89.537600 1.580070 2.978780 15.735700 0.000005 -0.000001 83.414200 86.880200 -83.682000 8.984550 -0.406207 -0.000000 -1.569250 -0.693650 -0.544932 16.377300 -0.000001 -0.000001 5.128050 -4.687210 2.068760 6.456720 -0.000001 -0.000000 -1.670820 -5.157340 -1.136450 12.994200 -0.242716 4.980390 -83.787400 -11.693800 -61.760100 5.348090 -0.000007 -0.000001 -35.760000 -60.204600 -81.744900 24.328600 0.000019 0.000005 8.174140 8.508510 -44.152600 22.291600 -0.000001 0.000005 26.046500 5.352050 -1.438950 12.994500 -0.242716 -4.980390 95.041100 -11.546000 -66.216100 -5.348130 -0.000001 -0.000004 -49.186400 -58.981800 -97.756600 -24.328900 0.000322 -0.000009 -1.961890 -2.776730 -35.248600 -22.291500 -0.000108 -0.000004 19.633600 5.592880 -10.925800 -2.192480 -6.469440 -0.000000 -176.765000 -9.653720 -5.910330 39.081100 -0.000007 -0.000012 -0.114298 0.248814 24.672900 40.985400 -0.000006 -0.000013 0.596781 7.103610 -66.006600 11.754300 -0.000000 0.000003 -0.000189 -0.001764 -16.644200 -2.192510 6.469440 -0.000001 176.960000 25.072900 175.610000 -39.081100 -0.002282 -0.040193 -0.014659 0.039898 24.249500 -40.985400 0.000008 0.000006 4.456740 10.819600 -67.077000 -11.754300 -0.000006 -0.000006 -0.002729 -0.037499 -18.098000
0.000000 0.000000 0.000000 0.000000 0.000000 -0.000000 -0.191520 92.012200 -1.553280 89.576400 1.586820 2.963970 15.735700 0.000005 -0.000001 83.068500 86.857800 -83.318600 8.984550 -0.406207 -0.000000 -1.529190 -0.737972 -0.509753 16.377300 -0.000001 -0.000001 4.965400 -4.795210 2.054230 6.456720 -0.000001 -0.000000 -1.541250 -5.264950 -1.140990 12.994200 -0.242716 4.980390 -83.958000 -11.421500 -61.875000 5.348090 -0.000007 -0.000001 -35.272600 -59.475100 -79.404100 24.328600 0.000019 0.000005 8.259840 7.495820 -48.056100 22.291600 -0.000001 0.000005 26.243900 5.337190 -0.996657 12.994500 -0.242716 -4.980390 94.859500 -11.189600 -66.341400 -5.348130 -0.000001 -0.000004 -46.474600 -58.780300 -94.086200 -24.328900 0.000322 -0.000009 -2.420090 -3.261080 -36.597700 -22.291500 -0.000108 -0.000004 19.655300 5.581490 -10.292300 -2.192480 -6.469440 -0.000000 -176.827000 -9.653390 -5.940470 39.081100 -0.000007 -0.000012 -0.114313 0.249216 24.640600 40.985400 -0.000006 -0.000013 0.612210 7.101530 -65.961500 11.754300 -0.000000 0.000003 -0.000177 -0.001670 -16.640800 -2.192510 6.469440 -0.000001 176.953000 24.789600 175.544000 -39.081100 -0.002282 -0.040193 -0.018842 0.049207 24.240000 -40.985400 0.000008 0.000006 4.201370 10.619000 -66.971800 -11.754300 -0.000006 -0.000006 -0.002534 -0.035211 -18.005000
0.000000 0.000000 0.000000 0.000000 0.000000 -0.000000 -0.171644 92.012700 -1.601040 89.611400 1.495510 2.944080 15.735700 0.000005 -0.000001 82.460400 86.819800 -82.692800 8.984550 -0.406207 -0.000000 -1.462240 -0.815669 -0.475099 16.377300 -0.000001 -0.000001 4.753970 -4.926840 2.038550 6.456720 -0.000001 -0.000000 -1.486890 -5.274430 -1.116870 12.994200 -0.242716 4.980390 -84.244400 -10.963500 -62.077200 5.348090 -0.000007 -0.000001 -34.427700 -58.202400 -75.468200 24.328600 0.000019 0.000005 8.722860 6.385250 -54.064000 22.291600 -0.000001 0.000005 26.219700 5.315590 -0.369115 12.994500 -0.242716 -4.980390 94.529000 -10.481500 -66.470700 -5.348130 -0.000001 -0.000004 -43.193900 -57.812400 -89.252500 -24.328900 0.000322 -0.000009 -2.634980 -3.243910 -39.109200 -22.291500 -0.000108 -0.000004 20.080900 5.571540 -9.767610 -2.192480 -6.469440 -0.000000 -176.880000 -9.761530 -5.972900 39.081100 -0.000007 -0.000012 -0.113852 0.248345 24.629000 40.985400 -0.000006 -0.000013 0.625226 7.086940 -65.933400 11.754300 -0.000000 0.000003 -0.000178 -0.001682 -16.641200 -2.192510 6.469440 -0.000001 176.939000 24.525600 175.456000 -39.081100 -0.002282 -0.040193 -0.024722 0.062213 24.258300 -40.985400 0.000008 0.000006 3.993560 10.486600 -66.887900 -11.754300 -0.000006 -0.000006 -0.002722 -0.037419 -18.094800
0.000000 0.000000 0.000000 0.000000 0.000000 -0.000000 -0.145768 91.998800 -1.675200 89.668100 1.333500 2.961960 15.735700 0.000005 -0.000001 82.039200 86.758400 -82.245900 8.984550 -0.406207 -0.000000 -1.346950 -0.881265 -0.423515 16.377300 -0.000001 -0.000001 4.391180 -5.009470 1.980030 6.456720 -0.000001 -0.000000 -1.441220 -5.266110 -1.071560 12.994200 -0.242716 4.980390 -84.729200 -10.224800 -62.539000 5.348090 -0.000007 -0.000001 -32.798300 -56.284700 -69.582200 24.328600 0.000019 0.000005 9.186920 4.946390 -61.936700 22.291600 -0.000001 0.000005 25.648300 5.297170 0.151607 12.994500 -0.242716 -4.980390 94.003900 -9.361900 -66.718200 -5.348130 -0.000001 -0.000004 -39.036200 -56.064400 -82.892300 -24.328900 0.000322 -0.000009 -3.058660 -3.266060 -43.153200 -22.291500 -0.000108 -0.000004 21.369900 5.574630 -9.926890 -2.192480 -6.469440 -0.000000 -176.949000 -9.952400 -6.025940 39.081100 -0.000007 -0.000012 -0.112475 0.244443 24.708600 40.985400 -0.000006 -0.000013 0.667102 7.138540 -65.937500 11.754300 -0.000000 0.000003 -0.000167 -0.001587 -16.637700 -2.192510 6.469440 -0.000001 176.883000 24.149000 175.334000 -39.081100 -0.002282 -0.040193 -0.034028 0.082387 24.382100 -40.985400 0.000008 0.000006 3.689070 10.328400 -66.816200 -11.754300 -0.000006 -0.000006 -0.002903 -0.039498 -18.179400
0.000000 0.000000 0.000000 0.000000 0.000000 -0.000000 -0.123271 91.974400 -1.774500 89.720300 1.150590 2.999640 15.735700 0.000005 -0.000001 81.146500 86.658500 -81.328900 8.984550 -0.406207 -0.000000 -1.164310 -1.014140 -0.374951 16.377300 -0.000001 -0.000001 4.006080 -5.106050 2.027280 6.456720 -0.000001 -0.000000 -1.520460 -5.140170 -1.049390 12.994200 -0.242716 4.980390 -85.303700 -9.375750 -63.239700 5.348090 -0.000007 -0.000001 -30.812000 -53.507900 -62.091800 24.328600 0.000019 0.000005 9.914120 3.449320 -71.004500 22.291600 -0.000001 0.000005 25.232900 5.276890 0.711123 12.994500 -0.242716 -4.980390 93.404600 -8.213690 -67.392300 -5.348130 -0.000001 -0.000004 -35.077400 -53.441300 -74.953300 -24.328900 0.000322 -0.000009 -3.685360 -3.150810 -49.514300 -22.291500 -0.000108 -0.000004 23.560800 5.586290 -10.552500 -2.192480 -6.469440 -0.000000 -177.012000 -10.172800 -6.123050 39.081100 -0.000007 -0.000012 -0.111110 0.239672 24.872100 40.985400 -0.000006 -0.000013 0.701786 7.145360 -65.958800 11.754300 -0.000000 0.000003 -0.000169 -0.001605 -16.638400 -2.192510 6.469440 -0.000001 176.854000 23.625400 175.153000 -39.081100 -0.002282 -0.040193 -0.044785 0.105168 24.576900 -40.985400 0.000008 0.000006 3.308790 10.066100 -66.731900 -11.754300 -0.000006 -0.000006 -0.002949 -0.040020 -18.200700
0.000000 0.000000 0.000000 0.000000 0.000000 -0.000000 -0.079897 91.941800 -1.871500 89.800800 0.880331 3.152180 15.735700 0.000005 -0.000001 80.278800 86.481000 -80.435900 8.984550 -0.406207 -0.000000 -0.830763 -1.176360 -0.322566 16.377300 -0.000001 -0.000001 3.384000 -5.072910 2.117510 6.456720 -0.000001 -0.000000 -1.600020 -4.891710 -1.031280 12.994200 -0.242716 4.980390 -86.015700 -8.195300 -63.959000 5.348090 -0.000007 -0.000001 -28.987300 -49.447600 -53.804300 24.328600 0.000019 0.000005 10.666800 1.835880 -80.346800 22.291600 -0.000001 0.000005 25.088500 5.263510 1.072810 12.994500 -0.242716 -4.980390 92.693000 -6.855340 -68.492400 -5.348130 -0.000001 -0.000004 -31.708800 -49.920700 -66.054500 -24.328900 0.000322 -0.000009 -4.582160 -2.914440 -57.599700 -22.291500 -0.000108 -0.000004 25.928500 5.597110 -11.169500 -2.192480 -6.469440 -0.000000 -177.096000 -10.387200 -6.092720 39.081100 -0.000007 -0.000012 -0.111268 0.237984 25.058200 40.985400 -0.000006 -0.000013 0.726163 7.042130 -66.010900 11.754300 -0.000000 0.000003 -0.000170 -0.001611 -16.638600 -2.192510 6.469440 -0.000001 176.724000 22.970000 175.081000 -39.081100 -0.002282 -0.040193 -0.057073 0.130590 24.815900 -40.985400 0.000008 0.000006 2.841930 9.845940 -66.663800 -11.754300 -0.000006 -0.000006 -0.002684 -0.036976 -18.076800
